<?xml version="1.0" encoding="UTF-8"?>
<!DOCTYPE svg PUBLIC "-//W3C//DTD SVG 1.1//EN" "http://www.w3.org/Graphics/SVG/1.1/DTD/svg11.dtd">
<svg xmlns="http://www.w3.org/2000/svg" version="1.1" width="96px" height="96px" style="shape-rendering:geometricPrecision; text-rendering:geometricPrecision; image-rendering:optimizeQuality; fill-rule:evenodd; clip-rule:evenodd" xmlns:xlink="http://www.w3.org/1999/xlink">
<g><path style="opacity:0.949" fill="#e9e9ea" d="M 77.5,31.5 C 80.0261,46.3998 81.1928,61.3998 81,76.5C 79.0982,81.4005 75.5982,84.5671 70.5,86C 55.1667,86.6667 39.8333,86.6667 24.5,86C 23.255,85.2086 21.9217,84.7086 20.5,84.5C 15.3052,81.462 12.6386,76.7954 12.5,70.5C 13.8904,57.8197 15.3904,45.1531 17,32.5C 18.1371,26.866 21.3038,22.866 26.5,20.5C 32.3236,7.92321 41.9903,3.42321 55.5,7C 61.7047,9.70459 66.038,14.2046 68.5,20.5C 73.3481,22.6791 76.3481,26.3458 77.5,31.5 Z"/></g>
<g><path style="opacity:1" fill="#464074" d="M 42.5,11.5 C 51.3262,10.4955 57.8262,13.8288 62,21.5C 62.49,22.7932 62.6567,24.1266 62.5,25.5C 67.1865,25.7608 70.3532,28.0942 72,32.5C 73.2444,44.8662 74.7444,57.1996 76.5,69.5C 76.4242,74.1571 74.4242,77.6571 70.5,80C 54.4078,80.969 38.4078,80.6356 22.5,79C 19.8202,76.6373 18.4869,73.6373 18.5,70C 19.9269,57.491 21.4269,44.991 23,32.5C 24.6946,29.3055 27.1946,26.9722 30.5,25.5C 32.762,19.2455 36.762,14.5788 42.5,11.5 Z"/></g>
<g><path style="opacity:1" fill="#707bbf" d="M 43.5,14.5 C 53.1688,13.7324 58.6688,18.0657 60,27.5C 63.0317,28.0923 65.6984,29.4256 68,31.5C 70.3266,45.4166 71.9932,59.4166 73,73.5C 71.8333,74.6667 70.6667,75.8333 69.5,77C 54.8333,77.6667 40.1667,77.6667 25.5,77C 22.3336,75.3343 21.0003,72.6677 21.5,69C 23.2187,57.1989 24.7187,45.3655 26,33.5C 27.6742,29.9114 30.5075,28.2447 34.5,28.5C 34.4994,21.8203 37.4994,17.1536 43.5,14.5 Z"/></g>
<g><path style="opacity:1" fill="#443e73" d="M 43.5,19.5 C 50.6401,17.8413 54.4735,20.508 55,27.5C 50.2523,28.6349 45.419,28.8015 40.5,28C 39.4464,26.6124 39.2797,25.1124 40,23.5C 41.3756,22.2949 42.5423,20.9616 43.5,19.5 Z"/></g>
<g><path style="opacity:1" fill="#d6d4dd" d="M 44.5,22.5 C 46.5273,22.3379 48.5273,22.5045 50.5,23C 50.9574,23.414 51.2907,23.914 51.5,24.5C 48.8333,25.8333 46.1667,25.8333 43.5,24.5C 43.8627,23.8165 44.1961,23.1499 44.5,22.5 Z"/></g>
<g><path style="opacity:0.273" fill="#050505" d="M 77.5,31.5 C 78.9663,32.347 79.7996,33.6803 80,35.5C 81.5731,47.991 83.0731,60.491 84.5,73C 83.8289,80.32 80.1622,85.32 73.5,88C 57.5,88.6667 41.5,88.6667 25.5,88C 23.1192,87.7767 21.4525,86.61 20.5,84.5C 21.9217,84.7086 23.255,85.2086 24.5,86C 39.8333,86.6667 55.1667,86.6667 70.5,86C 75.5982,84.5671 79.0982,81.4005 81,76.5C 81.1928,61.3998 80.0261,46.3998 77.5,31.5 Z"/></g>
<g><path style="opacity:1" fill="#e4e5ec" d="M 35.5,45.5 C 36.5,45.5 37.5,45.5 38.5,45.5C 38.3398,47.1992 38.5065,48.8659 39,50.5C 40.5,49 42,47.5 43.5,46C 44.635,45.2506 45.635,45.4173 46.5,46.5C 45.018,48.4829 43.3513,50.3163 41.5,52C 43.7411,53.7391 45.4078,55.9058 46.5,58.5C 46.1667,58.8333 45.8333,59.1667 45.5,59.5C 43.1831,57.684 41.0165,55.684 39,53.5C 38.964,55.9412 38.1307,57.9412 36.5,59.5C 35.5067,54.8804 35.1734,50.2137 35.5,45.5 Z"/></g>
<g><path style="opacity:1" fill="#e4e6ed" d="M 51.5,45.5 C 54.1194,45.2317 56.6194,45.565 59,46.5C 59.1667,46.8333 59.3333,47.1667 59.5,47.5C 56.8333,48.1667 54.1667,48.8333 51.5,49.5C 49.7905,54.7995 51.7905,57.1328 57.5,56.5C 57.5,55.5 57.5,54.5 57.5,53.5C 56.325,53.719 55.325,53.3857 54.5,52.5C 56.0453,51.5481 57.712,51.2148 59.5,51.5C 60.8158,58.334 58.1492,60.834 51.5,59C 46.1781,54.3281 46.1781,49.8281 51.5,45.5 Z"/></g>
</svg>
