<?xml version="1.0" encoding="UTF-8"?>
<!DOCTYPE svg PUBLIC "-//W3C//DTD SVG 1.1//EN" "http://www.w3.org/Graphics/SVG/1.1/DTD/svg11.dtd">
<svg xmlns="http://www.w3.org/2000/svg" version="1.1" width="96px" height="96px" style="shape-rendering:geometricPrecision; text-rendering:geometricPrecision; image-rendering:optimizeQuality; fill-rule:evenodd; clip-rule:evenodd" xmlns:xlink="http://www.w3.org/1999/xlink">
<g><path style="opacity:0.943" fill="#e5e5e7" d="M 75.5,10.5 C 77.0498,14.6528 76.7165,18.6528 74.5,22.5C 74.9424,23.7387 75.6091,24.7387 76.5,25.5C 76.7361,28.6207 78.0695,30.954 80.5,32.5C 84.2725,32.8838 87.2725,34.5505 89.5,37.5C 91.9884,44.0923 90.4884,49.4256 85,53.5C 82.3333,62.8333 79.6667,72.1667 77,81.5C 75.1814,86.3357 71.6814,89.169 66.5,90C 53.5,90.6667 40.5,90.6667 27.5,90C 25.8455,89.3923 24.1789,88.8923 22.5,88.5C 20.1644,86.9962 18.331,84.9962 17,82.5C 14.2023,72.4402 11.2023,62.4402 8,52.5C 2.01516,46.0676 2.18183,39.7342 8.5,33.5C 4.85311,21.4537 9.51977,15.7871 22.5,16.5C 24.5,16.6667 26.5,16.8333 28.5,17C 32.1978,18.8489 35.8644,20.6822 39.5,22.5C 40.5,22.1667 41.1667,21.5 41.5,20.5C 38.8117,13.0444 41.145,7.87776 48.5,5C 56.2464,4.10415 63.913,4.43748 71.5,6C 73.0414,7.37121 74.3747,8.87121 75.5,10.5 Z"/></g>
<g><path style="opacity:1" fill="#4c4674" d="M 48.5,10.5 C 55.175,10.3337 61.8417,10.5004 68.5,11C 72.2264,14.5241 72.2264,18.1908 68.5,22C 71.5844,26.754 73.5844,31.9207 74.5,37.5C 77.6492,37.2114 80.6492,37.7114 83.5,39C 86.6758,43.4424 85.8424,46.9424 81,49.5C 77.8446,59.7882 74.8446,70.1215 72,80.5C 71.1667,81.5 70.3333,82.5 69.5,83.5C 54.8782,84.6497 40.2115,84.8164 25.5,84C 24.3333,82.8333 23.1667,81.6667 22,80.5C 19.0844,67.5844 14.9177,55.251 9.5,43.5C 10.0238,39.9713 12.0238,37.6379 15.5,36.5C 9.1163,24.1886 12.783,19.3552 26.5,22C 29.9984,24.4989 33.8318,26.3323 38,27.5C 39.7748,26.7297 41.2748,25.563 42.5,24C 44.1124,23.2797 45.6124,23.4464 47,24.5C 47.8699,23.8921 48.3699,23.0588 48.5,22C 44.6928,18.031 44.6928,14.1976 48.5,10.5 Z"/></g>
<g><path style="opacity:0.247" fill="#030303" d="M 75.5,10.5 C 77.8284,12.1661 78.8284,14.4995 78.5,17.5C 78.4095,20.336 77.7429,23.0027 76.5,25.5C 75.6091,24.7387 74.9424,23.7387 74.5,22.5C 76.7165,18.6528 77.0498,14.6528 75.5,10.5 Z"/></g>
<g><path style="opacity:1" fill="#73b7f4" d="M 66.5,18.5 C 61.1667,18.5 55.8333,18.5 50.5,18.5C 47.8761,16.8022 47.8761,14.9688 50.5,13C 55.8333,12.3333 61.1667,12.3333 66.5,13C 69.1239,14.9688 69.1239,16.8022 66.5,18.5 Z"/></g>
<g><path style="opacity:1" fill="#d7ebfd" d="M 50.5,18.5 C 55.8333,18.5 61.1667,18.5 66.5,18.5C 66.0183,19.4163 65.685,20.4163 65.5,21.5C 66.8432,24.8496 68.1765,28.1829 69.5,31.5C 63.1667,31.5 56.8333,31.5 50.5,31.5C 49.1667,30.8333 48.1667,29.8333 47.5,28.5C 50.8425,25.8274 51.8425,22.4941 50.5,18.5 Z"/></g>
<g><path style="opacity:1" fill="#8cb55c" d="M 31.5,29.5 C 26.737,29.8815 22.737,31.8815 19.5,35.5C 12.7841,27.1006 14.7841,23.6006 25.5,25C 28.2287,25.5661 30.2287,27.0661 31.5,29.5 Z"/></g>
<g><path style="opacity:1" fill="#fde084" d="M 47.5,28.5 C 48.1667,29.8333 49.1667,30.8333 50.5,31.5C 53.1938,34.8605 56.1938,37.8605 59.5,40.5C 49.5,40.5 39.5,40.5 29.5,40.5C 32.5703,37.4362 35.2369,34.1029 37.5,30.5C 40.2853,30.067 42.6187,28.7337 44.5,26.5C 45.5178,27.1925 46.5178,27.8592 47.5,28.5 Z"/></g>
<g><path style="opacity:1" fill="#ed8631" d="M 31.5,29.5 C 33.5648,29.5172 35.5648,29.8505 37.5,30.5C 35.2369,34.1029 32.5703,37.4362 29.5,40.5C 25.8333,40.5 22.1667,40.5 18.5,40.5C 18.6287,38.7839 18.962,37.1172 19.5,35.5C 22.737,31.8815 26.737,29.8815 31.5,29.5 Z"/></g>
<g><path style="opacity:0.18" fill="#070707" d="M 76.5,25.5 C 78.1947,27.5351 79.528,29.8684 80.5,32.5C 78.0695,30.954 76.7361,28.6207 76.5,25.5 Z"/></g>
<g><path style="opacity:1" fill="#fdfcfb" d="M 50.5,31.5 C 56.8333,31.5 63.1667,31.5 69.5,31.5C 71.0248,34.2381 72.0248,37.2381 72.5,40.5C 68.1667,40.5 63.8333,40.5 59.5,40.5C 56.1938,37.8605 53.1938,34.8605 50.5,31.5 Z"/></g>
<g><path style="opacity:0.236" fill="#080808" d="M 89.5,37.5 C 95.0597,44.4235 94.2264,50.7568 87,56.5C 84.3333,65.8333 81.6667,75.1667 79,84.5C 76.8893,88.9439 73.3893,91.4439 68.5,92C 55.5,92.6667 42.5,92.6667 29.5,92C 26.5547,91.861 24.2214,90.6943 22.5,88.5C 24.1789,88.8923 25.8455,89.3923 27.5,90C 40.5,90.6667 53.5,90.6667 66.5,90C 71.6814,89.169 75.1814,86.3357 77,81.5C 79.6667,72.1667 82.3333,62.8333 85,53.5C 90.4884,49.4256 91.9884,44.0923 89.5,37.5 Z"/></g>
<g><path style="opacity:1" fill="#99c264" d="M 18.5,40.5 C 22.1667,40.5 25.8333,40.5 29.5,40.5C 39.5,40.5 49.5,40.5 59.5,40.5C 63.8333,40.5 68.1667,40.5 72.5,40.5C 75.5184,40.3354 78.5184,40.502 81.5,41C 83.1797,43.8108 82.5131,45.6441 79.5,46.5C 58.1667,46.5 36.8333,46.5 15.5,46.5C 12.7564,45.9283 11.9231,44.2617 13,41.5C 14.6995,40.5939 16.5328,40.2606 18.5,40.5 Z"/></g>
<g><path style="opacity:1" fill="#617c58" d="M 15.5,46.5 C 36.8333,46.5 58.1667,46.5 79.5,46.5C 78.3414,48.8546 77.3414,51.1879 76.5,53.5C 67.0235,52.1681 57.1901,51.5014 47,51.5C 36.8099,51.5014 26.9765,52.1681 17.5,53.5C 16.0762,51.4855 15.4095,49.1522 15.5,46.5 Z"/></g>
<g><path style="opacity:1" fill="#759f4f" d="M 76.5,53.5 C 74.3848,63.0114 71.3848,72.1781 67.5,81C 53.8333,81.6667 40.1667,81.6667 26.5,81C 22.6152,72.1781 19.6152,63.0114 17.5,53.5C 26.9765,52.1681 36.8099,51.5014 47,51.5C 57.1901,51.5014 67.0235,52.1681 76.5,53.5 Z"/></g>
<g><path style="opacity:1" fill="#e68832" d="M 29.5,56.5 C 31.5,56.5 33.5,56.5 35.5,56.5C 35.5,62.1667 35.5,67.8333 35.5,73.5C 33.5,73.5 31.5,73.5 29.5,73.5C 29.5,67.8333 29.5,62.1667 29.5,56.5 Z"/></g>
<g><path style="opacity:1" fill="#bb903b" d="M 44.5,56.5 C 42.8333,56.5 41.1667,56.5 39.5,56.5C 39.5,62.1667 39.5,67.8333 39.5,73.5C 38.5104,67.69 38.1771,61.69 38.5,55.5C 40.7354,55.2053 42.7354,55.5386 44.5,56.5 Z"/></g>
<g><path style="opacity:1" fill="#ee8630" d="M 44.5,56.5 C 44.5,62.1667 44.5,67.8333 44.5,73.5C 42.8333,73.5 41.1667,73.5 39.5,73.5C 39.5,67.8333 39.5,62.1667 39.5,56.5C 41.1667,56.5 42.8333,56.5 44.5,56.5 Z"/></g>
<g><path style="opacity:1" fill="#f4f8f1" d="M 49.5,55.5 C 51.5,55.5 53.5,55.5 55.5,55.5C 55.5,61.5 55.5,67.5 55.5,73.5C 53.5,73.5 51.5,73.5 49.5,73.5C 49.5,67.5 49.5,61.5 49.5,55.5 Z"/></g>
<g><path style="opacity:1" fill="#fefefe" d="M 59.5,56.5 C 61.1667,56.5 62.8333,56.5 64.5,56.5C 64.5,62.1667 64.5,67.8333 64.5,73.5C 62.8333,73.5 61.1667,73.5 59.5,73.5C 59.5,67.8333 59.5,62.1667 59.5,56.5 Z"/></g>
</svg>
