<?xml version="1.0" encoding="UTF-8"?>
<!DOCTYPE svg PUBLIC "-//W3C//DTD SVG 1.1//EN" "http://www.w3.org/Graphics/SVG/1.1/DTD/svg11.dtd">
<svg xmlns="http://www.w3.org/2000/svg" version="1.1" width="32px" height="32px" style="shape-rendering:geometricPrecision; text-rendering:geometricPrecision; image-rendering:optimizeQuality; fill-rule:evenodd; clip-rule:evenodd" xmlns:xlink="http://www.w3.org/1999/xlink">
<g><path style="opacity:0.591" fill="#e2e2e2" d="M 31.5,4.5 C 31.5,6.5 31.5,8.5 31.5,10.5C 31.1667,10.5 30.8333,10.5 30.5,10.5C 29.8826,10.6107 29.3826,10.944 29,11.5C 28.5006,17.1569 28.3339,22.8236 28.5,28.5C 20.1667,28.5 11.8333,28.5 3.5,28.5C 2.88258,28.3893 2.38258,28.056 2,27.5C 1.67565,20.4857 1.17565,13.4857 0.5,6.5C 0.833333,5.16667 1.16667,3.83333 1.5,2.5C 10.4518,1.36142 19.4518,1.19476 28.5,2C 29.6906,2.69794 30.6906,3.53128 31.5,4.5 Z"/></g>
<g><path style="opacity:1" fill="#9a878f" d="M 2.5,3.5 C 11.1667,3.5 19.8333,3.5 28.5,3.5C 27.9027,11.1532 27.4027,18.8198 27,26.5C 19.3333,27.8333 11.6667,27.8333 4,26.5C 3.59729,18.8198 3.09729,11.1532 2.5,3.5 Z"/></g>
<g><path style="opacity:1" fill="#fbc271" d="M 3.5,5.5 C 11.5,5.5 19.5,5.5 27.5,5.5C 25.756,11.9993 25.0893,18.666 25.5,25.5C 18.8333,25.5 12.1667,25.5 5.5,25.5C 5.91068,18.666 5.24401,11.9993 3.5,5.5 Z"/></g>
<g><path style="opacity:1" fill="#927170" d="M 11.5,12.5 C 14.2469,12.1866 16.9135,12.52 19.5,13.5C 18.1667,13.8333 16.8333,14.1667 15.5,14.5C 13.6672,14.4146 12.3339,13.7479 11.5,12.5 Z"/></g>
<g><path style="opacity:0.353" fill="#60605f" d="M 30.5,10.5 C 29.582,16.7748 29.2487,23.1082 29.5,29.5C 20.6506,29.8264 11.9839,29.493 3.5,28.5C 11.8333,28.5 20.1667,28.5 28.5,28.5C 28.3339,22.8236 28.5006,17.1569 29,11.5C 29.3826,10.944 29.8826,10.6107 30.5,10.5 Z"/></g>
</svg>
