<?xml version="1.0" encoding="UTF-8"?>
<!DOCTYPE svg PUBLIC "-//W3C//DTD SVG 1.1//EN" "http://www.w3.org/Graphics/SVG/1.1/DTD/svg11.dtd">
<svg xmlns="http://www.w3.org/2000/svg" version="1.1" width="96px" height="96px" style="shape-rendering:geometricPrecision; text-rendering:geometricPrecision; image-rendering:optimizeQuality; fill-rule:evenodd; clip-rule:evenodd" xmlns:xlink="http://www.w3.org/1999/xlink">
<g><path style="opacity:0.948" fill="#e8e8e9" d="M 88.5,11.5 C 87.5481,21.7631 85.8814,31.9298 83.5,42C 84.7433,54.8435 86.0767,67.6768 87.5,80.5C 87.4441,83.1113 86.4441,85.278 84.5,87C 77.2735,88.5945 69.9402,88.9278 62.5,88C 53.8071,86.9968 45.1404,85.8301 36.5,84.5C 28.5316,88.4743 20.1983,89.4743 11.5,87.5C 8.96795,86.3009 7.63462,84.3009 7.5,81.5C 9.07384,70.4829 10.7405,59.4829 12.5,48.5C 10.1667,37.8333 7.83333,27.1667 5.5,16.5C 5.94042,13.7862 7.27375,11.6195 9.5,10C 26.1278,7.04993 42.7945,6.88326 59.5,9.5C 66.8558,9.0537 74.1891,8.38704 81.5,7.5C 84.6276,7.56052 86.9609,8.89386 88.5,11.5 Z"/></g>
<g><path style="opacity:1" fill="#504676" d="M 18.5,13.5 C 40.1726,14.5005 61.8392,14.5005 83.5,13.5C 81.9955,23.027 80.3288,32.527 78.5,42C 80.1377,55.7896 81.1377,69.623 81.5,83.5C 66.0613,83.4832 50.728,82.1498 35.5,79.5C 32.2978,80.0993 29.2978,81.266 26.5,83C 22.1794,83.499 17.8461,83.6657 13.5,83.5C 14.3161,71.6183 15.6495,59.7849 17.5,48C 15.2304,36.8825 13.2304,25.7158 11.5,14.5C 14.0593,14.8016 16.3926,14.4682 18.5,13.5 Z"/></g>
<g><path style="opacity:0.288" fill="#1e1e1b" d="M 88.5,11.5 C 90.2427,12.6409 91.2427,14.3076 91.5,16.5C 89.2622,25.6174 87.2622,34.7841 85.5,44C 86.8004,56.8378 88.1338,69.6711 89.5,82.5C 89.4441,85.1113 88.4441,87.278 86.5,89C 78.9391,90.5979 71.2724,90.9313 63.5,90C 55.1512,88.9148 46.8179,87.7481 38.5,86.5C 30.9139,90.2419 22.9139,91.4086 14.5,90C 13.0577,89.6232 12.0577,88.7899 11.5,87.5C 20.1983,89.4743 28.5316,88.4743 36.5,84.5C 45.1404,85.8301 53.8071,86.9968 62.5,88C 69.9402,88.9278 77.2735,88.5945 84.5,87C 86.4441,85.278 87.4441,83.1113 87.5,80.5C 86.0767,67.6768 84.7433,54.8435 83.5,42C 85.8814,31.9298 87.5481,21.7631 88.5,11.5 Z"/></g>
<g><path style="opacity:1" fill="#fdb588" d="M 39.5,16.5 C 39.5,22.1667 39.5,27.8333 39.5,33.5C 44.8537,33.4312 50.187,33.0978 55.5,32.5C 55.5,27.5 55.5,22.5 55.5,17.5C 63.849,16.609 72.1823,16.609 80.5,17.5C 78.619,24.7871 76.9523,32.1204 75.5,39.5C 74.4057,43.4496 73.0724,47.4496 71.5,51.5C 71.8333,51.8333 72.1667,52.1667 72.5,52.5C 73.3683,50.2038 74.7016,49.5371 76.5,50.5C 77.3194,59.1517 77.986,67.8184 78.5,76.5C 78.5,77.5 78.5,78.5 78.5,79.5C 72.5,79.5 66.5,79.5 60.5,79.5C 54.4791,78.9973 48.4791,78.3307 42.5,77.5C 43.2026,75.2843 44.5359,73.451 46.5,72C 42.1928,72.6525 38.1928,74.1525 34.5,76.5C 31.7378,77.3795 29.0711,78.5462 26.5,80C 23.1832,80.4983 19.8499,80.665 16.5,80.5C 16.792,74.1235 17.4587,67.7902 18.5,61.5C 19.2679,60.7375 19.7679,59.7375 20,58.5C 21,59.8333 22,61.1667 23,62.5C 23.1667,61.6667 23.3333,60.8333 23.5,60C 22.3552,55.7335 21.3552,51.5668 20.5,47.5C 18.6278,37.4721 16.6278,27.4721 14.5,17.5C 22.7921,16.5929 31.1254,16.2596 39.5,16.5 Z"/></g>
<g><path style="opacity:1" fill="#fee5d4" d="M 39.5,16.5 C 44.8333,16.8333 50.1667,17.1667 55.5,17.5C 55.5,22.5 55.5,27.5 55.5,32.5C 50.187,33.0978 44.8537,33.4312 39.5,33.5C 39.5,27.8333 39.5,22.1667 39.5,16.5 Z"/></g>
<g><path style="opacity:1" fill="#c69180" d="M 75.5,39.5 C 75.3227,43.2343 75.6561,46.9009 76.5,50.5C 74.7016,49.5371 73.3683,50.2038 72.5,52.5C 72.1667,52.1667 71.8333,51.8333 71.5,51.5C 73.0724,47.4496 74.4057,43.4496 75.5,39.5 Z"/></g>
<g><path style="opacity:1" fill="#bc8b7f" d="M 20.5,47.5 C 21.3552,51.5668 22.3552,55.7335 23.5,60C 23.3333,60.8333 23.1667,61.6667 23,62.5C 22,61.1667 21,59.8333 20,58.5C 19.7679,59.7375 19.2679,60.7375 18.5,61.5C 19.1667,56.8333 19.8333,52.1667 20.5,47.5 Z"/></g>
<g><path style="opacity:1" fill="#c18e7f" d="M 42.5,77.5 C 39.9455,76.612 37.2788,76.2786 34.5,76.5C 38.1928,74.1525 42.1928,72.6525 46.5,72C 44.5359,73.451 43.2026,75.2843 42.5,77.5 Z"/></g>
<g><path style="opacity:1" fill="#b1837e" d="M 78.5,76.5 C 79.4345,77.5676 79.7678,78.901 79.5,80.5C 72.9779,80.8235 66.6446,80.4902 60.5,79.5C 66.5,79.5 72.5,79.5 78.5,79.5C 78.5,78.5 78.5,77.5 78.5,76.5 Z"/></g>
</svg>
