<?xml version="1.0" encoding="UTF-8"?>
<!DOCTYPE svg PUBLIC "-//W3C//DTD SVG 1.1//EN" "http://www.w3.org/Graphics/SVG/1.1/DTD/svg11.dtd">
<svg xmlns="http://www.w3.org/2000/svg" version="1.1" width="32px" height="32px" style="shape-rendering:geometricPrecision; text-rendering:geometricPrecision; image-rendering:optimizeQuality; fill-rule:evenodd; clip-rule:evenodd" xmlns:xlink="http://www.w3.org/1999/xlink">
<g><path style="opacity:0.744" fill="#c6c6c8" d="M 28.5,18.5 C 28.756,22.2693 28.4227,25.9359 27.5,29.5C 19.4366,29.1962 11.4366,29.1962 3.5,29.5C 2.58529,28.6721 1.91862,27.6721 1.5,26.5C 4.0327,19.835 4.0327,13.1683 1.5,6.5C 1.56983,5.22838 1.90316,4.06171 2.5,3C 5.18794,2.60759 7.85461,2.10759 10.5,1.5C 16.5197,2.60914 22.5197,2.77581 28.5,2C 29.8045,2.80399 30.4712,3.97065 30.5,5.5C 29.0872,9.72347 28.4205,14.0568 28.5,18.5 Z"/></g>
<g><path style="opacity:1" fill="#7c6b88" d="M 24.5,3.5 C 25.5,3.5 26.5,3.5 27.5,3.5C 26.677,11.4712 26.3437,19.4712 26.5,27.5C 19.1417,26.6358 11.8084,26.6358 4.5,27.5C 4.27249,23.6095 4.60582,19.7762 5.5,16C 4.38095,12.2389 3.71428,8.40555 3.5,4.5C 10.6866,4.82453 17.6866,4.49119 24.5,3.5 Z"/></g>
<g><path style="opacity:1" fill="#fbb488" d="M 12.5,5.5 C 12.5,7.5 12.5,9.5 12.5,11.5C 14.5,11.1667 16.5,10.8333 18.5,10.5C 18.5,8.83333 18.5,7.16667 18.5,5.5C 21.1873,5.33591 23.854,5.50258 26.5,6C 25.4489,8.36917 24.7823,10.8692 24.5,13.5C 25.2965,17.7985 25.6299,22.1318 25.5,26.5C 18.8115,25.429 12.1448,25.429 5.5,26.5C 7.10872,19.7161 6.77538,13.0495 4.5,6.5C 7.08645,5.51998 9.75312,5.18665 12.5,5.5 Z"/></g>
<g><path style="opacity:1" fill="#ffe0cc" d="M 12.5,5.5 C 14.5,5.5 16.5,5.5 18.5,5.5C 18.5,7.16667 18.5,8.83333 18.5,10.5C 16.5,10.8333 14.5,11.1667 12.5,11.5C 12.5,9.5 12.5,7.5 12.5,5.5 Z"/></g>
<g><path style="opacity:0.127" fill="#24231d" d="M 28.5,18.5 C 29.1611,20.134 29.4944,21.9674 29.5,24C 29.4535,26.2953 28.7868,28.1286 27.5,29.5C 28.4227,25.9359 28.756,22.2693 28.5,18.5 Z"/></g>
</svg>
