<?xml version="1.0" encoding="UTF-8"?>
<!DOCTYPE svg PUBLIC "-//W3C//DTD SVG 1.1//EN" "http://www.w3.org/Graphics/SVG/1.1/DTD/svg11.dtd">
<svg xmlns="http://www.w3.org/2000/svg" version="1.1" width="32px" height="32px" style="shape-rendering:geometricPrecision; text-rendering:geometricPrecision; image-rendering:optimizeQuality; fill-rule:evenodd; clip-rule:evenodd" xmlns:xlink="http://www.w3.org/1999/xlink">
<g><path style="opacity:0.718" fill="#dcdcde" d="M 27.5,22.5 C 27.16,24.679 26.16,26.5123 24.5,28C 18.8431,28.4994 13.1764,28.6661 7.5,28.5C 4.56407,27.4847 3.23073,25.318 3.5,22C 2.74805,13.8928 5.41472,7.22612 11.5,2C 14.1667,1.33333 16.8333,1.33333 19.5,2C 26.0233,7.20959 28.69,14.0429 27.5,22.5 Z"/></g>
<g><path style="opacity:1" fill="#6b73b1" d="M 13.5,3.5 C 15.6547,3.37201 17.6547,3.87201 19.5,5C 20.3524,7.36174 21.8524,9.19507 24,10.5C 24.3541,14.3542 24.8541,18.1875 25.5,22C 25.5607,23.7106 24.8941,25.044 23.5,26C 18.1667,26.6667 12.8333,26.6667 7.5,26C 7,25.5 6.5,25 6,24.5C 4.41672,15.7503 6.91672,8.75034 13.5,3.5 Z"/></g>
<g><path style="opacity:1" fill="#afb4d8" d="M 11.5,14.5 C 12.2216,14.9175 12.7216,15.5842 13,16.5C 13.3076,15.6919 13.8076,15.0253 14.5,14.5C 16.0026,15.0522 17.6693,15.0522 19.5,14.5C 19.5,16.1667 19.5,17.8333 19.5,19.5C 17.6693,18.9478 16.0026,18.9478 14.5,19.5C 13.4593,17.0087 12.6259,17.0087 12,19.5C 11.5065,17.8659 11.3398,16.1992 11.5,14.5 Z"/></g>
<g><path style="opacity:0.183" fill="#020202" d="M 27.5,22.5 C 28.5716,24.9358 27.905,27.1025 25.5,29C 19.3188,29.8192 13.3188,29.6525 7.5,28.5C 13.1764,28.6661 18.8431,28.4994 24.5,28C 26.16,26.5123 27.16,24.679 27.5,22.5 Z"/></g>
</svg>
