<?xml version="1.0" encoding="UTF-8"?>
<!DOCTYPE svg PUBLIC "-//W3C//DTD SVG 1.1//EN" "http://www.w3.org/Graphics/SVG/1.1/DTD/svg11.dtd">
<svg xmlns="http://www.w3.org/2000/svg" version="1.1" width="32px" height="32px" style="shape-rendering:geometricPrecision; text-rendering:geometricPrecision; image-rendering:optimizeQuality; fill-rule:evenodd; clip-rule:evenodd" xmlns:xlink="http://www.w3.org/1999/xlink">
<g><path style="opacity:0.61" fill="#eeeeef" d="M 24.5,2.5 C 24.5,3.16667 24.1667,3.5 23.5,3.5C 20.9272,2.44484 18.2605,2.27817 15.5,3C 14.2889,4.11314 14.2889,5.2798 15.5,6.5C 14.7573,7.18185 14.0906,7.84851 13.5,8.5C 11.095,8.13361 8.76167,7.46695 6.5,6.5C 4.08467,6.71893 3.08467,8.05227 3.5,10.5C 2.83333,10.8333 2.16667,11.1667 1.5,11.5C 2.13866,4.44133 5.63866,2.77467 12,6.5C 12.7177,2.35106 15.2177,0.351057 19.5,0.5C 21.5566,0.435702 23.2233,1.10237 24.5,2.5 Z"/></g>
<g><path style="opacity:0.034" fill="#060606" d="M 25.5,4.5 C 26.8333,5.5 26.8333,6.5 25.5,7.5C 24.8843,6.79778 24.8843,5.79778 25.5,4.5 Z"/></g>
<g><path style="opacity:1" fill="#d2e4f3" d="M 23.5,13.5 C 22.1667,13.5 20.8333,13.5 19.5,13.5C 18.2921,10.9558 16.2921,9.62248 13.5,9.5C 13.5,9.16667 13.5,8.83333 13.5,8.5C 14.5,8.5 15.5,8.5 16.5,8.5C 16.5,7.16667 16.5,5.83333 16.5,4.5C 18.5273,4.33788 20.5273,4.50454 22.5,5C 21.9781,5.5613 21.6448,6.22797 21.5,7C 22.6094,9.04661 23.2761,11.2133 23.5,13.5 Z"/></g>
<g><path style="opacity:1" fill="#797791" d="M 13.5,8.5 C 13.5,8.83333 13.5,9.16667 13.5,9.5C 12.8333,9.5 12.1667,9.5 11.5,9.5C 10.8333,9.5 10.1667,9.5 9.5,9.5C 8.43236,8.56552 7.09903,8.23219 5.5,8.5C 5.26269,9.79105 5.59603,10.791 6.5,11.5C 6.16667,12.1667 5.83333,12.8333 5.5,13.5C 4.83333,13.5 4.16667,13.5 3.5,13.5C 4.62495,12.3478 4.62495,11.3478 3.5,10.5C 3.08467,8.05227 4.08467,6.71893 6.5,6.5C 8.76167,7.46695 11.095,8.13361 13.5,8.5 Z"/></g>
<g><path style="opacity:1" fill="#8bb75c" d="M 9.5,9.5 C 7.97306,9.42702 6.97306,10.0937 6.5,11.5C 5.59603,10.791 5.26269,9.79105 5.5,8.5C 7.09903,8.23219 8.43236,8.56552 9.5,9.5 Z"/></g>
<g><path style="opacity:1" fill="#e48b35" d="M 9.5,9.5 C 10.1667,9.5 10.8333,9.5 11.5,9.5C 11.2671,11.0618 10.6005,12.3951 9.5,13.5C 8.16667,13.5 6.83333,13.5 5.5,13.5C 5.83333,12.8333 6.16667,12.1667 6.5,11.5C 6.97306,10.0937 7.97306,9.42702 9.5,9.5 Z"/></g>
<g><path style="opacity:1" fill="#f3db85" d="M 11.5,9.5 C 12.1667,9.5 12.8333,9.5 13.5,9.5C 16.2921,9.62248 18.2921,10.9558 19.5,13.5C 16.1667,13.5 12.8333,13.5 9.5,13.5C 10.6005,12.3951 11.2671,11.0618 11.5,9.5 Z"/></g>
<g><path style="opacity:1" fill="#7b7a9e" d="M 23.5,3.5 C 23.67,4.82207 23.3366,5.98873 22.5,7C 23.8613,8.5843 24.528,10.4176 24.5,12.5C 25.791,12.2627 26.791,12.596 27.5,13.5C 26.1667,13.5 24.8333,13.5 23.5,13.5C 23.2761,11.2133 22.6094,9.04661 21.5,7C 21.6448,6.22797 21.9781,5.5613 22.5,5C 20.5273,4.50454 18.5273,4.33788 16.5,4.5C 16.5,5.83333 16.5,7.16667 16.5,8.5C 15.5,8.5 14.5,8.5 13.5,8.5C 14.0906,7.84851 14.7573,7.18185 15.5,6.5C 14.2889,5.2798 14.2889,4.11314 15.5,3C 18.2605,2.27817 20.9272,2.44484 23.5,3.5 Z"/></g>
<g><path style="opacity:0.671" fill="#d0d0d4" d="M 24.5,2.5 C 25.3382,2.84171 25.6716,3.50838 25.5,4.5C 24.8843,5.79778 24.8843,6.79778 25.5,7.5C 26.1667,9.5 27.5,10.8333 29.5,11.5C 29.552,13.9029 29.2186,16.2362 28.5,18.5C 27.0762,20.5145 26.4095,22.8478 26.5,25.5C 26.1667,25.5 25.8333,25.5 25.5,25.5C 25.6716,24.5084 25.3382,23.8417 24.5,23.5C 25.3007,21.9582 25.634,20.2915 25.5,18.5C 25.5,17.5 25.5,16.5 25.5,15.5C 26.5,15.1667 27.1667,14.5 27.5,13.5C 26.791,12.596 25.791,12.2627 24.5,12.5C 24.528,10.4176 23.8613,8.5843 22.5,7C 23.3366,5.98873 23.67,4.82207 23.5,3.5C 24.1667,3.5 24.5,3.16667 24.5,2.5 Z"/></g>
<g><path style="opacity:1" fill="#716f8e" d="M 3.5,13.5 C 3.83333,14.5 4.5,15.1667 5.5,15.5C 5.5,16.8333 5.5,18.1667 5.5,19.5C 4.69626,17.8113 3.69626,16.1446 2.5,14.5C 2.62358,13.8933 2.95691,13.56 3.5,13.5 Z"/></g>
<g><path style="opacity:1" fill="#90b464" d="M 3.5,13.5 C 4.16667,13.5 4.83333,13.5 5.5,13.5C 6.83333,13.5 8.16667,13.5 9.5,13.5C 12.8333,13.5 16.1667,13.5 19.5,13.5C 20.8333,13.5 22.1667,13.5 23.5,13.5C 24.8333,13.5 26.1667,13.5 27.5,13.5C 27.1667,14.5 26.5,15.1667 25.5,15.5C 18.8333,15.5 12.1667,15.5 5.5,15.5C 4.5,15.1667 3.83333,14.5 3.5,13.5 Z"/></g>
<g><path style="opacity:0.098" fill="#2d2d2d" d="M 29.5,11.5 C 30.1667,12.5 30.8333,13.5 31.5,14.5C 31.5,14.8333 31.5,15.1667 31.5,15.5C 30.7281,16.6935 29.7281,17.6935 28.5,18.5C 29.2186,16.2362 29.552,13.9029 29.5,11.5 Z"/></g>
<g><path style="opacity:1" fill="#739a50" d="M 5.5,15.5 C 12.1667,15.5 18.8333,15.5 25.5,15.5C 25.5,16.5 25.5,17.5 25.5,18.5C 24.3299,20.6502 23.3299,22.9836 22.5,25.5C 17.8687,26.6616 13.202,26.8283 8.5,26C 7.57833,23.706 6.57833,21.5394 5.5,19.5C 5.5,18.1667 5.5,16.8333 5.5,15.5 Z"/></g>
<g><path style="opacity:1" fill="#dc8a34" d="M 9.5,18.5 C 10.6935,18.9704 11.3601,19.9704 11.5,21.5C 11.1667,22.5 10.8333,23.5 10.5,24.5C 9.53443,22.604 9.2011,20.604 9.5,18.5 Z"/></g>
<g><path style="opacity:1" fill="#e78731" d="M 12.5,18.5 C 13.6935,18.9704 14.3601,19.9704 14.5,21.5C 14.1667,22.5 13.8333,23.5 13.5,24.5C 12.5344,22.604 12.2011,20.604 12.5,18.5 Z"/></g>
<g><path style="opacity:1" fill="#c5d7b5" d="M 15.5,18.5 C 16.5,18.5 17.5,18.5 18.5,18.5C 18.5,20.5 18.5,22.5 18.5,24.5C 17.5,24.5 16.5,24.5 15.5,24.5C 15.5,22.5 15.5,20.5 15.5,18.5 Z"/></g>
<g><path style="opacity:1" fill="#e2ebda" d="M 19.5,18.5 C 20.6935,18.9704 21.3601,19.9704 21.5,21.5C 21.1667,22.5 20.8333,23.5 20.5,24.5C 19.5344,22.604 19.2011,20.604 19.5,18.5 Z"/></g>
<g><path style="opacity:0.099" fill="#131313" d="M 28.5,18.5 C 28.5905,21.1522 27.9238,23.4855 26.5,25.5C 26.4095,22.8478 27.0762,20.5145 28.5,18.5 Z"/></g>
<g><path style="opacity:1" fill="#7f8291" d="M 25.5,18.5 C 25.634,20.2915 25.3007,21.9582 24.5,23.5C 24.2488,25.1703 23.5822,26.6703 22.5,28C 17.8333,28.6667 13.1667,28.6667 8.5,28C 6.06952,25.6954 5.06952,22.8621 5.5,19.5C 6.57833,21.5394 7.57833,23.706 8.5,26C 13.202,26.8283 17.8687,26.6616 22.5,25.5C 23.3299,22.9836 24.3299,20.6502 25.5,18.5 Z"/></g>
<g><path style="opacity:0.997" fill="#ebeaec" d="M 3.5,10.5 C 4.62495,11.3478 4.62495,12.3478 3.5,13.5C 2.95691,13.56 2.62358,13.8933 2.5,14.5C 3.69626,16.1446 4.69626,17.8113 5.5,19.5C 5.06952,22.8621 6.06952,25.6954 8.5,28C 13.1667,28.6667 17.8333,28.6667 22.5,28C 23.5822,26.6703 24.2488,25.1703 24.5,23.5C 25.3382,23.8417 25.6716,24.5084 25.5,25.5C 25.4894,27.0174 24.8228,28.1841 23.5,29C 18.1771,29.4994 12.8437,29.666 7.5,29.5C 6.54163,29.0472 5.7083,28.3805 5,27.5C 4.11887,23.6244 2.78554,19.9577 1,16.5C 0.360257,14.735 0.526924,13.0683 1.5,11.5C 2.16667,11.1667 2.83333,10.8333 3.5,10.5 Z"/></g>
<g><path style="opacity:0.305" fill="#282828" d="M 25.5,25.5 C 25.8333,25.5 26.1667,25.5 26.5,25.5C 26.7035,27.3904 26.0368,28.8904 24.5,30C 18.6513,30.8184 12.9846,30.6517 7.5,29.5C 12.8437,29.666 18.1771,29.4994 23.5,29C 24.8228,28.1841 25.4894,27.0174 25.5,25.5 Z"/></g>
</svg>
