<?xml version="1.0" encoding="UTF-8"?>
<!DOCTYPE svg PUBLIC "-//W3C//DTD SVG 1.1//EN" "http://www.w3.org/Graphics/SVG/1.1/DTD/svg11.dtd">
<svg xmlns="http://www.w3.org/2000/svg" version="1.1" width="96px" height="96px" style="shape-rendering:geometricPrecision; text-rendering:geometricPrecision; image-rendering:optimizeQuality; fill-rule:evenodd; clip-rule:evenodd" xmlns:xlink="http://www.w3.org/1999/xlink">
<g><path style="opacity:0.942" fill="#e8e8e9" d="M 82.5,16.5 C 82.7382,22.223 83.7382,27.5563 85.5,32.5C 87.1392,33.4725 88.4726,34.8058 89.5,36.5C 92.2104,43.7307 90.377,49.3974 84,53.5C 81.3333,62.8333 78.6667,72.1667 76,81.5C 74.1251,84.1873 71.6251,86.0206 68.5,87C 53.4679,87.7847 38.4679,87.618 23.5,86.5C 21.8712,85.3747 20.3712,84.0414 19,82.5C 16.0224,73.2564 13.3557,63.923 11,54.5C 3.99341,49.4922 2.32675,43.1588 6,35.5C 7.24186,34.1279 8.74186,33.1279 10.5,32.5C 7.84307,16.4953 14.5097,9.16197 30.5,10.5C 31.09,9.20108 32.09,8.36775 33.5,8C 42.8333,7.33333 52.1667,7.33333 61.5,8C 63.1161,8.61524 64.4495,9.61524 65.5,11C 69.5,11.3333 73.5,11.6667 77.5,12C 79.6605,12.9959 81.3272,14.4959 82.5,16.5 Z"/></g>
<g><path style="opacity:1" fill="#514a79" d="M 35.5,12.5 C 43.5069,12.3336 51.5069,12.5003 59.5,13C 60.1667,14 60.8333,15 61.5,16C 66.1667,16.3333 70.8333,16.6667 75.5,17C 76.3333,17.8333 77.1667,18.6667 78,19.5C 78.4995,25.4908 78.6662,31.4908 78.5,37.5C 84.4992,37.002 86.6659,39.6687 85,45.5C 83.7365,47.607 81.9032,48.607 79.5,48.5C 77.1441,58.9198 74.3107,69.2531 71,79.5C 70.1667,80.3333 69.3333,81.1667 68.5,82C 54.5,82.6667 40.5,82.6667 26.5,82C 25.6667,81.1667 24.8333,80.3333 24,79.5C 20.6893,69.2531 17.8559,58.9198 15.5,48.5C 9.31337,46.9232 7.98003,43.4232 11.5,38C 13.1341,37.5065 14.8008,37.3398 16.5,37.5C 16.3338,31.4908 16.5005,25.4908 17,19.5C 17.8333,18.6667 18.6667,17.8333 19.5,17C 24.1667,16.6667 28.8333,16.3333 33.5,16C 34.305,14.8873 34.9717,13.7206 35.5,12.5 Z"/></g>
<g><path style="opacity:1" fill="#efeeef" d="M 36.5,15.5 C 43.8635,15.1694 51.1968,15.5027 58.5,16.5C 58.8333,17.1667 59.1667,17.8333 59.5,18.5C 64.4671,19.329 69.4671,19.829 74.5,20C 75.4732,25.4066 75.8066,30.9066 75.5,36.5C 56.8333,36.5 38.1667,36.5 19.5,36.5C 19.334,31.1563 19.5006,25.8229 20,20.5C 25.1157,19.8557 30.2824,19.189 35.5,18.5C 36.1272,17.5832 36.4606,16.5832 36.5,15.5 Z"/></g>
<g><path style="opacity:0.236" fill="#000000" d="M 82.5,16.5 C 83.9663,17.347 84.7996,18.6803 85,20.5C 85.4988,24.4862 85.6655,28.4862 85.5,32.5C 83.7382,27.5563 82.7382,22.223 82.5,16.5 Z"/></g>
<g><path style="opacity:0.24" fill="#080808" d="M 89.5,36.5 C 93.7322,41.0638 94.2322,46.0638 91,51.5C 89.2906,53.1752 87.6239,54.8419 86,56.5C 83.6667,64.8333 81.3333,73.1667 79,81.5C 77.8333,85.3333 75.3333,87.8333 71.5,89C 56.8333,89.6667 42.1667,89.6667 27.5,89C 25.6803,88.7996 24.347,87.9663 23.5,86.5C 38.4679,87.618 53.4679,87.7847 68.5,87C 71.6251,86.0206 74.1251,84.1873 76,81.5C 78.6667,72.1667 81.3333,62.8333 84,53.5C 90.377,49.3974 92.2104,43.7307 89.5,36.5 Z"/></g>
<g><path style="opacity:1" fill="#91bc62" d="M 78.5,45.5 C 57.8333,45.5 37.1667,45.5 16.5,45.5C 12.65,45.2993 11.65,43.4659 13.5,40C 36.1667,39.3333 58.8333,39.3333 81.5,40C 83.35,43.4659 82.35,45.2993 78.5,45.5 Z"/></g>
<g><path style="opacity:1" fill="#749e50" d="M 16.5,45.5 C 37.1667,45.5 57.8333,45.5 78.5,45.5C 74.8379,55.9893 71.6713,66.6559 69,77.5C 68.5,78 68,78.5 67.5,79C 54.1667,79.6667 40.8333,79.6667 27.5,79C 27,78.5 26.5,78 26,77.5C 23.3287,66.6559 20.1621,55.9893 16.5,45.5 Z"/></g>
<g><path style="opacity:1" fill="#e7ebe4" d="M 28.5,52.5 C 31.488,52.1547 32.8213,53.488 32.5,56.5C 32.8213,59.512 31.488,60.8453 28.5,60.5C 28.5,57.8333 28.5,55.1667 28.5,52.5 Z"/></g>
<g><path style="opacity:1" fill="#e6eae2" d="M 37.5,52.5 C 38.5,52.5 39.5,52.5 40.5,52.5C 40.5,55.1667 40.5,57.8333 40.5,60.5C 39.1779,60.67 38.0113,60.3366 37,59.5C 36.2967,57.0709 36.4634,54.7375 37.5,52.5 Z"/></g>
<g><path style="opacity:1" fill="#ebede9" d="M 46.5,52.5 C 47.4959,52.4142 48.3292,52.7476 49,53.5C 49.4966,55.8098 49.6633,58.1432 49.5,60.5C 48.1667,60.5 46.8333,60.5 45.5,60.5C 45.2786,57.7212 45.612,55.0545 46.5,52.5 Z"/></g>
<g><path style="opacity:1" fill="#e6eae2" d="M 54.5,52.5 C 57.488,52.1547 58.8213,53.488 58.5,56.5C 58.8213,59.512 57.488,60.8453 54.5,60.5C 54.5,57.8333 54.5,55.1667 54.5,52.5 Z"/></g>
<g><path style="opacity:1" fill="#e7ebe4" d="M 63.5,52.5 C 64.5,52.5 65.5,52.5 66.5,52.5C 66.5,55.1667 66.5,57.8333 66.5,60.5C 65.1779,60.67 64.0113,60.3366 63,59.5C 62.2967,57.0709 62.4634,54.7375 63.5,52.5 Z"/></g>
<g><path style="opacity:1" fill="#e2e7dd" d="M 29.5,63.5 C 31.9497,63.8743 32.9497,65.3743 32.5,68C 33.0676,71.2634 31.7343,72.7634 28.5,72.5C 28.2641,69.3915 28.5975,66.3915 29.5,63.5 Z"/></g>
<g><path style="opacity:1" fill="#e1e7dc" d="M 37.5,63.5 C 38.4959,63.4142 39.3292,63.7476 40,64.5C 40.4974,67.146 40.6641,69.8127 40.5,72.5C 39.1779,72.67 38.0113,72.3366 37,71.5C 36.2782,68.7395 36.4448,66.0728 37.5,63.5 Z"/></g>
<g><path style="opacity:1" fill="#e8ebe5" d="M 46.5,63.5 C 48.9497,63.8743 49.9497,65.3743 49.5,68C 49.6906,69.9729 49.024,71.4729 47.5,72.5C 45.215,69.8222 44.8817,66.8222 46.5,63.5 Z"/></g>
<g><path style="opacity:1" fill="#e3e8df" d="M 54.5,64.5 C 55.8333,64.5 57.1667,64.5 58.5,64.5C 58.6633,66.8568 58.4966,69.1902 58,71.5C 56.9887,72.3366 55.8221,72.67 54.5,72.5C 54.5,69.8333 54.5,67.1667 54.5,64.5 Z"/></g>
<g><path style="opacity:1" fill="#e2e7de" d="M 63.5,63.5 C 64.4959,63.4142 65.3292,63.7476 66,64.5C 66.4974,67.146 66.6641,69.8127 66.5,72.5C 65.1779,72.67 64.0113,72.3366 63,71.5C 62.2782,68.7395 62.4448,66.0728 63.5,63.5 Z"/></g>
</svg>
