<?xml version="1.0" encoding="UTF-8"?>
<!DOCTYPE svg PUBLIC "-//W3C//DTD SVG 1.1//EN" "http://www.w3.org/Graphics/SVG/1.1/DTD/svg11.dtd">
<svg xmlns="http://www.w3.org/2000/svg" version="1.1" width="96px" height="96px" style="shape-rendering:geometricPrecision; text-rendering:geometricPrecision; image-rendering:optimizeQuality; fill-rule:evenodd; clip-rule:evenodd" xmlns:xlink="http://www.w3.org/1999/xlink">
<g><path style="opacity:0.923" fill="#e9e9e9" d="M 90.5,11.5 C 90.6663,18.5079 90.4996,25.5079 90,32.5C 89.3333,33.1667 88.6667,33.8333 88,34.5C 87.6667,50.5 87.3333,66.5 87,82.5C 86.5348,83.9308 85.7014,85.0975 84.5,86C 72.4254,87.1477 60.2587,87.6477 48,87.5C 35.7897,87.4805 23.6231,87.1472 11.5,86.5C 10.2058,85.7101 9.0391,84.7101 8,83.5C 7.66667,67.1667 7.33333,50.8333 7,34.5C 5.61524,33.4495 4.61524,32.1161 4,30.5C 3.33333,24.5 3.33333,18.5 4,12.5C 4.46524,11.0692 5.29857,9.90252 6.5,9C 33.0798,7.35156 59.7464,7.01823 86.5,8C 88.3237,8.65999 89.657,9.82665 90.5,11.5 Z"/></g>
<g><path style="opacity:1" fill="#57507f" d="M 9.5,12.5 C 34.8333,12.5 60.1667,12.5 85.5,12.5C 85.5,18.5 85.5,24.5 85.5,30.5C 84.5,30.5 83.5,30.5 82.5,30.5C 82.6666,47.5033 82.4999,64.5033 82,81.5C 70.5738,82.1616 59.0738,82.4949 47.5,82.5C 35.9262,82.4949 24.4262,82.1616 13,81.5C 12.5001,64.5033 12.3334,47.5033 12.5,30.5C 11.5,30.5 10.5,30.5 9.5,30.5C 9.5,24.5 9.5,18.5 9.5,12.5 Z"/></g>
<g><path style="opacity:0.284" fill="#20201d" d="M 90.5,11.5 C 91.7899,12.0577 92.6232,13.0577 93,14.5C 93.6667,20.1667 93.6667,25.8333 93,31.5C 92.7398,33.6175 91.7398,35.2842 90,36.5C 89.6667,52.5 89.3333,68.5 89,84.5C 88.5348,85.9308 87.7014,87.0975 86.5,88C 62.5878,89.6463 38.5878,89.9797 14.5,89C 13.0577,88.6232 12.0577,87.7899 11.5,86.5C 23.6231,87.1472 35.7897,87.4805 48,87.5C 60.2587,87.6477 72.4254,87.1477 84.5,86C 85.7014,85.0975 86.5348,83.9308 87,82.5C 87.3333,66.5 87.6667,50.5 88,34.5C 88.6667,33.8333 89.3333,33.1667 90,32.5C 90.4996,25.5079 90.6663,18.5079 90.5,11.5 Z"/></g>
<g><path style="opacity:1" fill="#b7906f" d="M 82.5,27.5 C 82.5,23.8333 82.5,20.1667 82.5,16.5C 59.1667,16.5 35.8333,16.5 12.5,16.5C 12.5,20.1667 12.5,23.8333 12.5,27.5C 11.5166,23.7016 11.1832,19.7016 11.5,15.5C 35.5,15.5 59.5,15.5 83.5,15.5C 83.8168,19.7016 83.4834,23.7016 82.5,27.5 Z"/></g>
<g><path style="opacity:1" fill="#fdc471" d="M 82.5,27.5 C 81.5,27.5 80.5,27.5 79.5,27.5C 58.1667,27.5 36.8333,27.5 15.5,27.5C 14.5,27.5 13.5,27.5 12.5,27.5C 12.5,23.8333 12.5,20.1667 12.5,16.5C 35.8333,16.5 59.1667,16.5 82.5,16.5C 82.5,20.1667 82.5,23.8333 82.5,27.5 Z"/></g>
<g><path style="opacity:1" fill="#bf9670" d="M 15.5,27.5 C 36.8333,27.5 58.1667,27.5 79.5,27.5C 79.5,44.8333 79.5,62.1667 79.5,79.5C 58.1667,79.5 36.8333,79.5 15.5,79.5C 15.5,62.1667 15.5,44.8333 15.5,27.5 Z"/></g>
<g><path style="opacity:1" fill="#fdc471" d="M 16.5,30.5 C 37.1667,30.5 57.8333,30.5 78.5,30.5C 78.5,46.5 78.5,62.5 78.5,78.5C 57.8333,78.5 37.1667,78.5 16.5,78.5C 16.5,62.5 16.5,46.5 16.5,30.5 Z"/></g>
<g><path style="opacity:1" fill="#41396e" d="M 35.5,37.5 C 43.5,37.5 51.5,37.5 59.5,37.5C 59.7135,39.1439 59.3802,40.6439 58.5,42C 51.1667,42.6667 43.8333,42.6667 36.5,42C 35.6198,40.6439 35.2865,39.1439 35.5,37.5 Z"/></g>
</svg>
