<?xml version="1.0" encoding="UTF-8"?>
<!DOCTYPE svg PUBLIC "-//W3C//DTD SVG 1.1//EN" "http://www.w3.org/Graphics/SVG/1.1/DTD/svg11.dtd">
<svg xmlns="http://www.w3.org/2000/svg" version="1.1" width="32px" height="32px" style="shape-rendering:geometricPrecision; text-rendering:geometricPrecision; image-rendering:optimizeQuality; fill-rule:evenodd; clip-rule:evenodd" xmlns:xlink="http://www.w3.org/1999/xlink">
<g><path style="opacity:0.662" fill="#dadadc" d="M 29.5,11.5 C 28.3234,15.7181 27.3234,20.0514 26.5,24.5C 26.7373,25.791 26.404,26.791 25.5,27.5C 19.5907,28.4553 13.5907,28.7886 7.5,28.5C 4.99641,23.6933 2.66307,18.6933 0.5,13.5C 2.49785,10.6902 3.83118,7.52352 4.5,4C 6.7148,3.82951 8.7148,3.16284 10.5,2C 16.9497,0.71692 22.783,1.88359 28,5.5C 28.3153,7.58556 28.8153,9.58556 29.5,11.5 Z"/></g>
<g><path style="opacity:1" fill="#7c7899" d="M 26.5,12.5 C 18.9809,12.175 11.6476,12.5084 4.5,13.5C 4.06178,13.4346 3.72845,13.6012 3.5,14C 5.91499,15.4653 6.91499,17.632 6.5,20.5C 5.58435,18.1866 4.25102,16.0199 2.5,14C 2.61348,12.7202 3.28014,11.8869 4.5,11.5C 5.46557,9.60395 5.7989,7.60395 5.5,5.5C 8.97663,5.32209 12.31,4.65542 15.5,3.5C 18.69,4.65542 22.0234,5.32209 25.5,5.5C 25.298,7.94965 25.6314,10.283 26.5,12.5 Z"/></g>
<g><path style="opacity:1" fill="#f1f1f1" d="M 11.5,5.5 C 15.8566,5.58645 20.19,5.91979 24.5,6.5C 24.5,8.16667 24.5,9.83333 24.5,11.5C 18.5,11.5 12.5,11.5 6.5,11.5C 6.5,9.83333 6.5,8.16667 6.5,6.5C 8.41467,6.78448 10.0813,6.45115 11.5,5.5 Z"/></g>
<g><path style="opacity:1" fill="#88ad66" d="M 4.5,13.5 C 12.1739,13.3336 19.8406,13.5003 27.5,14C 26.3333,14.5 25.5,15.3333 25,16.5C 24.4677,19.2635 23.6343,21.9302 22.5,24.5C 17.8333,25.8333 13.1667,25.8333 8.5,24.5C 8.00569,22.9745 7.33903,21.6412 6.5,20.5C 6.91499,17.632 5.91499,15.4653 3.5,14C 3.72845,13.6012 4.06178,13.4346 4.5,13.5 Z"/></g>
<g><path style="opacity:0.012" fill="#1d1d1d" d="M 29.5,11.5 C 30.1667,12.5 30.8333,13.5 31.5,14.5C 31.5,14.8333 31.5,15.1667 31.5,15.5C 29.2705,18.1896 27.6038,21.1896 26.5,24.5C 27.3234,20.0514 28.3234,15.7181 29.5,11.5 Z"/></g>
<g><path style="opacity:1" fill="#6a7574" d="M 4.5,13.5 C 11.6476,12.5084 18.9809,12.175 26.5,12.5C 27.4972,12.4701 28.1639,12.9701 28.5,14C 26.2031,18.1682 24.2031,22.5015 22.5,27C 17.8333,27.6667 13.1667,27.6667 8.5,27C 6.98368,25.103 6.31701,22.9363 6.5,20.5C 7.33903,21.6412 8.00569,22.9745 8.5,24.5C 13.1667,25.8333 17.8333,25.8333 22.5,24.5C 23.6343,21.9302 24.4677,19.2635 25,16.5C 25.5,15.3333 26.3333,14.5 27.5,14C 19.8406,13.5003 12.1739,13.3336 4.5,13.5 Z"/></g>
<g><path style="opacity:0.353" fill="#454545" d="M 25.5,27.5 C 22.9134,28.8164 19.9134,29.483 16.5,29.5C 13.3138,29.498 10.3138,29.1647 7.5,28.5C 13.5907,28.7886 19.5907,28.4553 25.5,27.5 Z"/></g>
</svg>
